<svg width="368" height="369" viewBox="0 0 368 369" fill="none" xmlns="http://www.w3.org/2000/svg">
<path d="M66.7699 276.051C128.439 308.266 228.418 308.266 290.08 276.051C351.742 243.836 351.749 191.602 290.08 159.388C228.41 127.173 128.432 127.173 66.7699 159.388C5.10784 191.602 5.10048 243.836 66.7699 276.051Z" fill="#FAFAFA"/>
<path d="M214.787 232.436C200.28 240.804 200.28 254.383 214.787 262.759C229.293 271.135 252.801 271.135 267.308 262.759C281.814 254.383 281.807 240.804 267.308 232.436C252.809 224.067 229.286 224.06 214.787 232.436Z" fill="#EBEBEB"/>
<path d="M62.0522 112.394L100.913 100.309L71.0166 121.02L62.0522 112.394Z" fill="url(#paint0_linear_10_808)"/>
<path d="M100.913 100.309L59.0566 107.213L50.0922 98.5793L100.913 100.309Z" fill="url(#paint1_linear_10_808)"/>
<path d="M59.0566 107.213V117.568L62.0522 112.394L100.913 100.309L59.0566 107.213Z" fill="#455A64"/>
<path d="M59.0566 117.568L65.0403 115.272L62.0522 112.394L59.0566 117.568Z" fill="url(#paint2_linear_10_808)"/>
<path d="M62.0522 112.394L65.0403 115.272L64.0835 115.633L62.0522 112.394Z" fill="#455A64"/>
<path d="M52.6166 116.008C52.4929 116.01 52.372 115.971 52.2733 115.896C52.1746 115.822 52.1038 115.716 52.0724 115.596C52.041 115.476 52.0507 115.35 52.1 115.236C52.1493 115.123 52.2354 115.029 52.3443 114.97C53.0067 114.602 53.6765 114.234 54.3389 113.947C54.4046 113.912 54.4768 113.89 54.5511 113.883C54.6255 113.876 54.7005 113.884 54.7715 113.907C54.8426 113.93 54.9082 113.968 54.9645 114.017C55.0208 114.066 55.0665 114.126 55.0989 114.193C55.1313 114.26 55.1497 114.334 55.153 114.408C55.1563 114.483 55.1444 114.557 55.1181 114.627C55.0918 114.697 55.0515 114.761 54.9998 114.815C54.9481 114.869 54.886 114.912 54.8173 114.941C54.177 115.25 53.5219 115.581 52.8816 115.942C52.7997 115.984 52.7089 116.007 52.6166 116.008Z" fill="#E0E0E0"/>
<path d="M45.8234 175.447C45.7106 175.448 45.6001 175.415 45.5069 175.352C44.3099 174.508 43.1759 173.578 42.1139 172.569C42.0466 172.526 41.9897 172.468 41.947 172.4C41.9043 172.332 41.877 172.256 41.8669 172.176C41.8567 172.096 41.8641 172.016 41.8884 171.939C41.9128 171.863 41.9535 171.792 42.0077 171.733C42.0619 171.674 42.1284 171.628 42.2025 171.597C42.2766 171.566 42.3565 171.552 42.4367 171.555C42.5169 171.558 42.5954 171.579 42.6667 171.615C42.7381 171.652 42.8006 171.704 42.8499 171.767C43.8743 172.74 44.969 173.635 46.1251 174.446C46.2204 174.514 46.2915 174.611 46.3282 174.722C46.3649 174.834 46.3652 174.954 46.3292 175.065C46.2931 175.177 46.2225 175.274 46.1276 175.342C46.0327 175.411 45.9184 175.448 45.8013 175.447H45.8234ZM40.0531 170.089C39.9716 170.09 39.891 170.073 39.8171 170.038C39.7432 170.004 39.678 169.953 39.6262 169.89C38.6988 168.758 37.8551 167.561 37.1018 166.306C37.0256 166.18 37.0026 166.029 37.0378 165.886C37.073 165.743 37.1635 165.62 37.2894 165.544C37.4154 165.468 37.5663 165.445 37.7092 165.48C37.8521 165.516 37.9751 165.606 38.0512 165.732C38.7769 166.942 39.5886 168.098 40.48 169.191C40.5719 169.304 40.6158 169.448 40.602 169.593C40.5882 169.737 40.5179 169.871 40.4064 169.964C40.3078 170.047 40.1822 170.092 40.0531 170.089ZM35.9094 163.392C35.8025 163.393 35.6976 163.362 35.6075 163.305C35.5173 163.247 35.4458 163.165 35.4016 163.068C34.8002 161.735 34.2839 160.366 33.856 158.968C33.8246 158.832 33.8459 158.689 33.9156 158.568C33.9852 158.447 34.0981 158.357 34.2315 158.316C34.3649 158.275 34.5089 158.286 34.6345 158.347C34.7601 158.408 34.858 158.514 34.9085 158.644C35.3154 159.996 35.807 161.321 36.3805 162.611C36.4113 162.677 36.4287 162.749 36.4317 162.822C36.4347 162.895 36.4232 162.968 36.3979 163.036C36.3726 163.105 36.3339 163.167 36.2842 163.221C36.2345 163.274 36.1746 163.317 36.1082 163.347C36.0455 163.375 35.978 163.39 35.9094 163.392ZM33.5174 155.877C33.3898 155.876 33.2665 155.83 33.1685 155.749C33.0706 155.667 33.004 155.553 32.9802 155.428C32.6992 153.998 32.5002 152.553 32.384 151.1C32.3723 150.954 32.4192 150.809 32.5145 150.697C32.6097 150.585 32.7454 150.516 32.8918 150.504C33.0382 150.492 33.1833 150.539 33.2951 150.635C33.4069 150.73 33.4763 150.866 33.488 151.012C33.5963 152.423 33.788 153.826 34.0621 155.215C34.077 155.286 34.0776 155.359 34.0638 155.43C34.0499 155.502 34.0219 155.57 33.9815 155.63C33.941 155.69 33.8889 155.742 33.8281 155.782C33.7674 155.822 33.6993 155.849 33.6278 155.862L33.5174 155.877ZM32.8182 148.016C32.7455 148.016 32.6734 148.002 32.6064 147.974C32.5393 147.945 32.4786 147.904 32.4278 147.852C32.3771 147.8 32.3373 147.738 32.3108 147.67C32.2843 147.602 32.2716 147.53 32.2736 147.457C32.2908 146 32.3891 144.546 32.568 143.1C32.5688 143.022 32.586 142.946 32.6185 142.875C32.6509 142.805 32.6978 142.742 32.7562 142.691C32.8146 142.64 32.8831 142.601 32.9573 142.578C33.0314 142.556 33.1096 142.549 33.1866 142.558C33.2637 142.567 33.3379 142.593 33.4044 142.633C33.4709 142.673 33.5282 142.726 33.5726 142.79C33.6171 142.854 33.6476 142.926 33.6621 143.002C33.6767 143.078 33.6751 143.157 33.6573 143.232C33.4871 144.639 33.3938 146.055 33.3776 147.472C33.3766 147.544 33.3614 147.616 33.3328 147.683C33.3042 147.749 33.2627 147.809 33.2107 147.86C33.1588 147.911 33.0974 147.95 33.0301 147.977C32.9627 148.004 32.8907 148.017 32.8182 148.016ZM33.7162 140.178C33.6748 140.185 33.6324 140.185 33.591 140.178C33.4488 140.146 33.3249 140.06 33.2463 139.937C33.1677 139.814 33.1408 139.665 33.1715 139.523C33.494 138.097 33.907 136.694 34.408 135.32C34.4324 135.249 34.4713 135.183 34.5222 135.127C34.5731 135.071 34.635 135.026 34.704 134.995C34.7731 134.964 34.8477 134.947 34.9234 134.946C34.9991 134.945 35.0742 134.96 35.144 134.989C35.215 135.015 35.2802 135.054 35.3356 135.105C35.391 135.156 35.4355 135.218 35.4665 135.287C35.4974 135.355 35.5141 135.43 35.5156 135.505C35.5171 135.58 35.5034 135.655 35.4752 135.725C34.9923 137.053 34.594 138.41 34.2829 139.788C34.2465 139.908 34.1707 140.011 34.0677 140.082C33.9648 140.153 33.8408 140.187 33.7162 140.178ZM36.3363 132.744C36.2515 132.748 36.1674 132.727 36.0934 132.686C36.0276 132.655 35.9685 132.611 35.9198 132.557C35.871 132.504 35.8335 132.44 35.8095 132.372C35.7855 132.303 35.7755 132.231 35.78 132.158C35.7845 132.086 35.8035 132.015 35.8358 131.95C36.4782 130.638 37.2009 129.367 37.9997 128.144C38.0801 128.03 38.2007 127.951 38.3373 127.922C38.4738 127.894 38.6162 127.918 38.7357 127.99C38.8523 128.068 38.9343 128.188 38.9645 128.325C38.9947 128.463 38.9707 128.606 38.8976 128.726C38.1212 129.907 37.4206 131.136 36.8 132.406C36.7619 132.5 36.6983 132.581 36.6164 132.641C36.5345 132.701 36.4375 132.737 36.3363 132.744ZM40.5683 126.12C40.4452 126.122 40.3255 126.08 40.2298 126.003C40.1724 125.958 40.1245 125.901 40.089 125.838C40.0535 125.774 40.0309 125.704 40.0227 125.631C40.0145 125.558 40.0208 125.485 40.0411 125.415C40.0615 125.345 40.0956 125.279 40.1414 125.223C41.0612 124.086 42.0441 123.003 43.0854 121.977C43.1889 121.873 43.3292 121.815 43.4755 121.815C43.6218 121.815 43.7621 121.873 43.8656 121.977C43.969 122.08 44.027 122.221 44.027 122.367C44.027 122.513 43.969 122.653 43.8656 122.757C42.8626 123.758 41.9142 124.812 41.0246 125.914C40.9676 125.977 40.8967 126.026 40.8174 126.057C40.7382 126.088 40.6529 126.099 40.5683 126.091V126.12ZM46.103 120.468C46.0228 120.468 45.9436 120.45 45.8711 120.416C45.7985 120.381 45.7345 120.331 45.6835 120.269C45.5903 120.156 45.545 120.012 45.5574 119.866C45.5698 119.72 45.6388 119.585 45.7498 119.489C46.8702 118.557 48.037 117.683 49.2458 116.869C49.3644 116.796 49.5062 116.771 49.6426 116.798C49.7791 116.825 49.9002 116.903 49.9818 117.016C50.0639 117.138 50.0945 117.288 50.067 117.433C50.0394 117.577 49.9559 117.705 49.8346 117.789C48.6553 118.581 47.5179 119.433 46.4269 120.343C46.3344 120.417 46.2213 120.461 46.103 120.468Z" fill="#E0E0E0"/>
<path d="M50.887 178.325C50.808 178.326 50.73 178.308 50.6589 178.273C49.9744 177.964 49.2973 177.633 48.6496 177.28C48.5863 177.247 48.5301 177.201 48.4844 177.146C48.4386 177.091 48.4042 177.028 48.383 176.959C48.3618 176.891 48.3543 176.819 48.3609 176.748C48.3675 176.676 48.3881 176.607 48.4214 176.544C48.4902 176.417 48.6056 176.323 48.743 176.28C48.8805 176.238 49.0292 176.25 49.1574 176.316C49.7904 176.654 50.4454 176.978 51.1078 177.28C51.2214 177.333 51.3137 177.423 51.3694 177.535C51.4251 177.647 51.441 177.775 51.4145 177.897C51.3879 178.02 51.3205 178.13 51.2234 178.209C51.1262 178.288 51.005 178.331 50.8797 178.332L50.887 178.325Z" fill="#E0E0E0"/>
<path d="M302.636 151.616L333.769 131.685L347.48 136.086L302.636 151.616Z" fill="url(#paint3_linear_10_808)"/>
<path d="M302.636 151.616L329.544 129.182L323.56 122.279L302.636 151.616Z" fill="url(#paint4_linear_10_808)"/>
<path d="M329.544 129.182V134.386L302.636 151.616L329.544 129.182Z" fill="#455A64"/>
<path d="M335.616 127.011C335.482 127.012 335.354 126.962 335.255 126.871C335.147 126.774 335.08 126.637 335.071 126.492C335.061 126.346 335.109 126.202 335.204 126.091C336.162 125.022 337.013 123.861 337.743 122.625C337.817 122.498 337.939 122.405 338.081 122.368C338.223 122.331 338.374 122.352 338.501 122.426C338.628 122.5 338.72 122.622 338.758 122.764C338.795 122.906 338.774 123.057 338.7 123.184C337.929 124.48 337.037 125.7 336.036 126.827C335.983 126.886 335.918 126.933 335.846 126.965C335.773 126.996 335.695 127.012 335.616 127.011ZM339.826 120.152C339.76 120.162 339.693 120.162 339.627 120.152C339.558 120.125 339.494 120.084 339.44 120.033C339.387 119.981 339.344 119.918 339.315 119.85C339.286 119.781 339.272 119.707 339.272 119.632C339.273 119.558 339.288 119.484 339.318 119.416C339.838 118.075 340.228 116.687 340.481 115.272C340.507 115.127 340.59 114.999 340.711 114.916C340.832 114.832 340.981 114.8 341.125 114.827C341.269 114.853 341.397 114.936 341.481 115.056C341.565 115.177 341.597 115.326 341.57 115.471C341.299 116.954 340.888 118.408 340.341 119.813C340.3 119.915 340.228 120.002 340.136 120.062C340.044 120.123 339.936 120.154 339.826 120.152ZM341.401 112.254C341.329 112.253 341.258 112.238 341.191 112.209C341.125 112.181 341.065 112.139 341.015 112.087C340.965 112.035 340.926 111.973 340.9 111.906C340.874 111.839 340.862 111.767 340.864 111.695C340.864 111.504 340.864 111.312 340.864 111.121C340.861 109.871 340.762 108.624 340.569 107.389C340.548 107.244 340.585 107.096 340.672 106.978C340.758 106.859 340.888 106.78 341.033 106.756C341.178 106.737 341.325 106.775 341.443 106.861C341.561 106.947 341.641 107.076 341.666 107.22C341.865 108.511 341.966 109.815 341.968 111.121C341.968 111.32 341.968 111.518 341.968 111.717C341.962 111.863 341.899 112.001 341.794 112.101C341.688 112.201 341.547 112.256 341.401 112.254ZM340.29 104.276C340.171 104.276 340.056 104.237 339.962 104.165C339.867 104.093 339.799 103.993 339.767 103.879C339.345 102.498 338.816 101.152 338.185 99.8527C338.152 99.7876 338.133 99.7167 338.129 99.6442C338.124 99.5717 338.134 99.499 338.158 99.4304C338.182 99.3618 338.22 99.2987 338.269 99.2448C338.317 99.191 338.376 99.1474 338.442 99.1167C338.574 99.0534 338.726 99.045 338.864 99.0933C339.002 99.1416 339.115 99.2426 339.178 99.3743C339.837 100.724 340.385 102.124 340.82 103.562C340.841 103.631 340.848 103.704 340.842 103.776C340.835 103.848 340.813 103.918 340.779 103.982C340.745 104.045 340.698 104.102 340.642 104.147C340.586 104.193 340.521 104.226 340.452 104.247C340.4 104.267 340.345 104.277 340.29 104.276ZM336.875 96.9676C336.782 96.9684 336.69 96.9451 336.609 96.9C336.527 96.8548 336.459 96.7893 336.411 96.71C335.622 95.4987 334.754 94.3407 333.813 93.2434C333.765 93.1884 333.729 93.1245 333.706 93.0555C333.684 92.9864 333.675 92.9136 333.68 92.8411C333.686 92.7686 333.705 92.6979 333.738 92.6331C333.771 92.5682 333.816 92.5105 333.872 92.4632C333.926 92.4159 333.989 92.3799 334.058 92.3572C334.126 92.3346 334.199 92.3257 334.27 92.3312C334.342 92.3367 334.412 92.3564 334.477 92.3891C334.541 92.4219 334.598 92.4671 334.645 92.5221C335.621 93.6579 336.521 94.8578 337.338 96.1138C337.406 96.235 337.427 96.3769 337.397 96.5126C337.368 96.6483 337.289 96.7683 337.176 96.8498C337.088 96.9146 336.984 96.9529 336.875 96.9602V96.9676ZM331.723 90.7778C331.582 90.7773 331.447 90.7219 331.347 90.6232C330.287 89.6313 329.174 88.6977 328.013 87.8264C327.955 87.7829 327.906 87.7284 327.869 87.6661C327.832 87.6037 327.808 87.5347 327.798 87.4629C327.788 87.3911 327.792 87.3181 327.81 87.2478C327.828 87.1776 327.859 87.1116 327.903 87.0536C327.946 86.9956 328.001 86.9468 328.063 86.9099C328.125 86.8729 328.195 86.8486 328.266 86.8384C328.338 86.8281 328.411 86.8321 328.481 86.8501C328.552 86.8681 328.618 86.8997 328.676 86.9432C329.872 87.8374 331.017 88.7982 332.105 89.821C332.187 89.8969 332.244 89.9957 332.269 90.1046C332.293 90.2135 332.284 90.3272 332.243 90.4309C332.201 90.5345 332.129 90.6231 332.036 90.685C331.944 90.747 331.834 90.7793 331.723 90.7778ZM325.268 85.876C325.163 85.8751 325.061 85.8444 324.973 85.7877C324.473 85.4786 323.95 85.1695 323.421 84.8677C322.685 84.4555 321.949 84.0434 321.168 83.6533C321.097 83.6248 321.033 83.5817 320.979 83.5268C320.925 83.4719 320.884 83.4065 320.857 83.3346C320.83 83.2627 320.818 83.1861 320.823 83.1095C320.827 83.0328 320.847 82.958 320.882 82.8897C320.917 82.8214 320.966 82.7611 321.026 82.7127C321.085 82.6643 321.154 82.6288 321.228 82.6085C321.302 82.5883 321.38 82.5837 321.455 82.595C321.531 82.6064 321.604 82.6334 321.669 82.6744C322.442 83.0719 323.214 83.484 323.965 83.9109C324.51 84.2127 325.04 84.5292 325.555 84.853C325.674 84.9289 325.759 85.0475 325.793 85.1844C325.828 85.3213 325.808 85.466 325.739 85.589C325.691 85.673 325.623 85.7435 325.541 85.7937C325.458 85.8439 325.364 85.8723 325.268 85.876ZM259.285 85.5007C259.188 85.4996 259.093 85.4733 259.009 85.4242C258.925 85.3752 258.856 85.3051 258.807 85.221C258.737 85.0967 258.719 84.95 258.756 84.8124C258.793 84.6748 258.883 84.5573 259.006 84.485C260.286 83.749 261.604 83.013 262.936 82.3947C263.067 82.331 263.218 82.3215 263.356 82.3683C263.493 82.4152 263.607 82.5146 263.672 82.645C263.733 82.7771 263.741 82.9278 263.693 83.0653C263.645 83.2027 263.545 83.316 263.414 83.381C262.104 84.0213 260.809 84.7058 259.55 85.4344C259.468 85.4745 259.377 85.4923 259.285 85.486V85.5007ZM318.092 82.1372C318.015 82.1376 317.94 82.12 317.871 82.0856C316.546 81.5042 315.177 80.9596 313.808 80.4738C313.67 80.424 313.557 80.3212 313.494 80.188C313.431 80.0548 313.424 79.9021 313.473 79.7636C313.523 79.625 313.626 79.5118 313.759 79.449C313.892 79.3862 314.045 79.3789 314.184 79.4287C315.575 79.9292 316.966 80.4812 318.32 81.0773C318.438 81.1275 318.535 81.2173 318.594 81.3312C318.653 81.4451 318.671 81.576 318.644 81.7015C318.617 81.8269 318.547 81.939 318.446 82.0185C318.345 82.098 318.22 82.14 318.092 82.1372ZM266.535 81.909C266.426 81.9097 266.32 81.8779 266.229 81.8175C266.139 81.7572 266.068 81.6711 266.027 81.5704C265.997 81.5029 265.981 81.4301 265.979 81.3561C265.978 81.2822 265.991 81.2088 266.019 81.1401C266.046 81.0715 266.087 81.009 266.139 80.9565C266.191 80.904 266.253 80.8625 266.322 80.8344C267.683 80.2604 269.082 79.7304 270.48 79.252C270.55 79.2229 270.626 79.2086 270.702 79.2101C270.778 79.2116 270.853 79.2287 270.922 79.2605C270.991 79.2923 271.053 79.338 271.103 79.3948C271.154 79.4516 271.192 79.5183 271.216 79.5906C271.243 79.6615 271.255 79.7371 271.252 79.8129C271.249 79.8887 271.231 79.9631 271.199 80.0317C271.166 80.1004 271.121 80.1618 271.064 80.2125C271.008 80.2631 270.942 80.3019 270.87 80.3266C269.494 80.7976 268.11 81.3202 266.778 81.8796C266.699 81.9015 266.616 81.9065 266.535 81.8943V81.909ZM310.496 79.3624C310.445 79.3696 310.393 79.3696 310.342 79.3624C308.951 78.9576 307.523 78.6264 306.102 78.2805C306.031 78.265 305.964 78.2357 305.904 78.1943C305.845 78.1528 305.794 78.1 305.754 78.0388C305.715 77.9776 305.688 77.9093 305.675 77.8378C305.662 77.7662 305.664 77.6928 305.679 77.6218C305.695 77.5508 305.724 77.4835 305.765 77.4237C305.807 77.364 305.86 77.3131 305.921 77.2738C305.982 77.2345 306.05 77.2076 306.122 77.1947C306.194 77.1818 306.267 77.1831 306.338 77.1986C307.81 77.5151 309.238 77.8904 310.651 78.3026C310.778 78.3398 310.888 78.4218 310.96 78.5335C311.032 78.6451 311.062 78.779 311.043 78.9106C311.024 79.0421 310.958 79.1625 310.858 79.2495C310.758 79.3366 310.629 79.3845 310.496 79.3845V79.3624ZM274.175 79.252C274.054 79.2516 273.937 79.2118 273.842 79.1387C273.746 79.0656 273.677 78.9633 273.645 78.8472C273.625 78.7781 273.618 78.7057 273.626 78.6341C273.634 78.5626 273.656 78.4933 273.691 78.4304C273.726 78.3674 273.773 78.312 273.83 78.2673C273.886 78.2226 273.951 78.1896 274.02 78.1701C275.441 77.7727 276.898 77.4341 278.348 77.1103C278.421 77.0868 278.499 77.079 278.576 77.0874C278.652 77.0958 278.726 77.1201 278.793 77.1588C278.86 77.1976 278.918 77.2499 278.963 77.3123C279.008 77.3748 279.04 77.446 279.056 77.5215C279.072 77.5969 279.072 77.6749 279.056 77.7503C279.04 77.8258 279.008 77.8971 278.963 77.9596C278.918 78.0221 278.86 78.0744 278.793 78.1132C278.727 78.152 278.653 78.1764 278.576 78.1848C277.148 78.4866 275.72 78.8399 274.322 79.23L274.175 79.252ZM302.606 77.5887H302.496C301.061 77.3605 299.596 77.1765 298.154 77.044C298.078 77.0432 298.003 77.0267 297.933 76.9955C297.864 76.9643 297.802 76.9191 297.751 76.8628C297.7 76.8065 297.661 76.7402 297.637 76.6682C297.612 76.5961 297.603 76.5198 297.61 76.4441C297.616 76.3683 297.639 76.2948 297.675 76.228C297.711 76.1613 297.761 76.1027 297.821 76.0561C297.881 76.0095 297.95 75.9757 298.024 75.957C298.098 75.9383 298.174 75.935 298.249 75.9474C299.721 76.0799 301.193 76.2639 302.665 76.4994C302.809 76.5247 302.937 76.6049 303.022 76.7232C303.107 76.8414 303.143 76.9882 303.122 77.1324C303.096 77.2515 303.031 77.3586 302.938 77.4372C302.845 77.5158 302.728 77.5612 302.606 77.5666V77.5887ZM282.079 77.5372C281.948 77.5371 281.822 77.4904 281.722 77.4055C281.622 77.3205 281.556 77.2028 281.535 77.0735C281.514 76.9282 281.55 76.7805 281.637 76.6621C281.724 76.5436 281.854 76.4641 281.998 76.4405C283.47 76.2197 284.942 76.0357 286.414 75.9106C286.487 75.9043 286.56 75.9124 286.629 75.9343C286.699 75.9562 286.763 75.9916 286.819 76.0384C286.874 76.0853 286.92 76.1426 286.954 76.2072C286.987 76.2717 287.008 76.3423 287.014 76.4147C287.021 76.4872 287.012 76.5603 286.991 76.6296C286.969 76.699 286.933 76.7634 286.886 76.8191C286.84 76.8748 286.782 76.9207 286.718 76.9543C286.653 76.9878 286.583 77.0083 286.51 77.0146C285.038 77.1397 283.603 77.309 282.168 77.5372H282.079ZM294.555 76.8012C293.083 76.7496 291.611 76.7423 290.175 76.8012C290.103 76.8051 290.031 76.7944 289.962 76.7697C289.894 76.7449 289.832 76.7066 289.779 76.6571C289.726 76.6076 289.684 76.5479 289.654 76.4816C289.625 76.4153 289.61 76.3437 289.609 76.2712C289.606 76.1985 289.617 76.1259 289.643 76.0577C289.669 75.9896 289.708 75.9272 289.758 75.8744C289.808 75.8216 289.868 75.7793 289.935 75.7501C290.001 75.7209 290.073 75.7054 290.146 75.7045C291.618 75.653 293.09 75.6604 294.562 75.7045C294.634 75.7064 294.706 75.7226 294.772 75.7521C294.838 75.7816 294.898 75.8239 294.948 75.8765C294.998 75.9292 295.037 75.9911 295.063 76.0588C295.089 76.1266 295.101 76.1987 295.099 76.2712C295.088 76.4093 295.027 76.5384 294.926 76.6336C294.825 76.7288 294.693 76.7832 294.555 76.7864V76.8012Z" fill="#E0E0E0"/>
<path d="M291.78 162.376V161.198H291.493C291.056 160.401 290.393 159.75 289.587 159.329C287.942 158.494 286.124 158.059 284.28 158.059C282.436 158.059 280.618 158.494 278.973 159.329C278.167 159.75 277.504 160.401 277.067 161.198H276.78V162.339C276.78 163.465 277.516 164.598 278.988 165.46C280.634 166.29 282.451 166.723 284.295 166.723C286.138 166.723 287.956 166.29 289.601 165.46C291.059 164.628 291.787 163.494 291.78 162.376Z" fill="#37474F"/>
<path d="M284.28 165.533C288.422 165.533 291.78 163.592 291.78 161.198C291.78 158.804 288.422 156.863 284.28 156.863C280.138 156.863 276.78 158.804 276.78 161.198C276.78 163.592 280.138 165.533 284.28 165.533Z" fill="#455A64"/>
<path d="M282.352 125.105V160.69C282.367 160.859 282.427 161.021 282.526 161.159C282.624 161.297 282.757 161.407 282.911 161.478C283.334 161.692 283.802 161.803 284.276 161.803C284.751 161.803 285.218 161.692 285.642 161.478C285.798 161.409 285.933 161.3 286.032 161.161C286.132 161.023 286.193 160.86 286.208 160.69V125.105H282.352Z" fill="#37474F"/>
<path d="M292.928 98.4689C291.051 97.387 289.344 97.2987 288.063 98.0126L264.224 111.791L276.184 135.777L300.104 121.94V111.445C300.104 106.565 296.888 100.758 292.928 98.4689Z" fill="#455A64"/>
<path d="M276.184 125.274V135.777L261.839 127.489V116.994C261.839 112.114 265.048 110.017 269.008 112.306C271.547 113.778 273.777 116.678 275.051 119.857C275.763 121.576 276.147 123.413 276.184 125.274Z" fill="#37474F"/>
<path d="M276.184 125.274V135.777L261.839 127.489L275.051 119.857C275.763 121.576 276.147 123.413 276.184 125.274Z" fill="#263238"/>
<path d="M273.792 128.873C272.475 125.061 268.191 120.115 264.224 117.833C260.257 115.551 258.123 116.781 259.44 120.593L261.832 127.497L276.184 135.784C276.184 135.784 275.117 132.686 273.792 128.873Z" fill="#455A64"/>
<path d="M283.662 125.672L282.86 125.208C282.687 125.129 282.497 125.097 282.308 125.115C282.12 125.133 281.939 125.2 281.785 125.311C281.342 125.601 280.973 125.991 280.708 126.45C280.443 126.909 280.29 127.424 280.261 127.953C280.241 128.143 280.272 128.334 280.351 128.507C280.43 128.681 280.554 128.83 280.71 128.939L281.446 129.366L281.586 129.138C281.739 129.105 281.886 129.048 282.02 128.969C282.464 128.68 282.833 128.291 283.097 127.834C283.362 127.376 283.515 126.862 283.544 126.334C283.543 126.202 283.526 126.071 283.492 125.944L283.662 125.672Z" fill="#263238"/>
<path d="M282.55 125.76C282.107 126.048 281.738 126.437 281.474 126.895C281.209 127.353 281.056 127.867 281.027 128.395C281.027 129.366 281.711 129.756 282.55 129.271C282.994 128.983 283.363 128.594 283.628 128.136C283.893 127.678 284.046 127.164 284.074 126.636C284.096 125.664 283.36 125.274 282.55 125.76Z" fill="#37474F"/>
<path d="M282.55 127.931C282.492 127.931 282.435 127.92 282.381 127.897C282.328 127.875 282.279 127.843 282.238 127.802C282.197 127.761 282.165 127.712 282.142 127.658C282.12 127.605 282.109 127.547 282.109 127.489V112.306C282.109 112.189 282.155 112.076 282.238 111.993C282.321 111.911 282.433 111.864 282.55 111.864C282.668 111.864 282.78 111.911 282.863 111.993C282.945 112.076 282.992 112.189 282.992 112.306V127.489C282.992 127.607 282.945 127.719 282.863 127.802C282.78 127.884 282.668 127.931 282.55 127.931Z" fill="#263238"/>
<path d="M282.948 112.703V116.663L287.195 112.306L282.948 112.703Z" fill="#37474F"/>
<path d="M59.6749 244.05C59.3069 244.248 52.5504 246.162 50.048 242.857C47.5456 239.553 51.704 234.401 49.3561 232.502C47.0083 230.603 40.4285 232.502 38.8461 228.513C37.2637 224.524 41.952 222.801 39.3171 218.776C37.6537 216.236 33.0022 214.838 33.2157 212.475C33.5248 209.024 39.8838 208.059 45.4333 211.791C50.9827 215.522 53.5734 212.461 55.3325 212.21C57.0915 211.96 60.8893 212.512 60.7715 218.695C60.6537 224.877 59.6749 244.05 59.6749 244.05Z" fill="url(#paint5_linear_10_808)"/>
<path d="M60.1238 235.284C60.036 235.284 59.9511 235.253 59.8839 235.196C59.8166 235.14 59.7713 235.061 59.7558 234.975C57.8201 223.199 44.1821 213.682 37.087 211.636C37.0401 211.624 36.9962 211.602 36.958 211.572C36.9197 211.542 36.888 211.504 36.8646 211.461C36.8412 211.419 36.8267 211.372 36.8219 211.324C36.8172 211.275 36.8222 211.226 36.8368 211.18C36.8641 211.086 36.9275 211.007 37.0131 210.96C37.0987 210.913 37.1994 210.902 37.2931 210.93C44.5427 213.027 58.4973 222.809 60.4845 234.857C60.4994 234.953 60.4761 235.05 60.4196 235.129C60.3631 235.207 60.278 235.26 60.1827 235.277L60.1238 235.284Z" fill="white"/>
<path d="M44.0349 225.429C43.9539 225.43 43.875 225.404 43.8103 225.355C43.7455 225.307 43.6987 225.238 43.6769 225.16C43.6551 225.082 43.6596 224.999 43.6897 224.924C43.7198 224.849 43.7739 224.786 43.8435 224.744C44.0643 224.612 49.3193 221.543 54.4861 222.978C54.5837 223.003 54.6672 223.067 54.7183 223.154C54.7693 223.24 54.7838 223.344 54.7584 223.442C54.733 223.539 54.6699 223.623 54.5829 223.674C54.496 223.725 54.3923 223.739 54.2947 223.714C49.4224 222.36 44.2704 225.37 44.2189 225.4C44.1616 225.427 44.0978 225.437 44.0349 225.429Z" fill="white"/>
<path d="M252.08 181.865C254.98 182.263 259.918 180.584 260.272 175.756C260.625 170.928 262.62 169.618 266.277 168.831C269.935 168.043 271.01 166.77 271.429 164.473C271.849 162.177 269.067 159.432 269.847 155.973C270.627 152.513 273.233 152.521 275.794 148.613C277.435 146.096 274.072 142.254 268.471 143.902C262.87 145.551 263.319 149.165 257.718 149.628C252.117 150.092 248.606 153.492 248.496 157.724C248.385 161.956 252.08 181.865 252.08 181.865Z" fill="url(#paint6_linear_10_808)"/>
<path opacity="0.2" d="M252.08 181.865C254.98 182.263 259.918 180.584 260.272 175.756C260.625 170.928 262.62 169.618 266.277 168.831C269.935 168.043 271.01 166.77 271.429 164.473C271.849 162.177 269.067 159.432 269.847 155.973C270.627 152.513 273.233 152.521 275.794 148.613C277.435 146.096 274.072 142.254 268.471 143.902C262.87 145.551 263.319 149.165 257.718 149.628C252.117 150.092 248.606 153.492 248.496 157.724C248.385 161.956 252.08 181.865 252.08 181.865Z" fill="black"/>
<path d="M251.02 172.606H250.976C250.929 172.597 250.884 172.578 250.844 172.551C250.804 172.524 250.769 172.489 250.743 172.449C250.716 172.408 250.697 172.363 250.688 172.316C250.679 172.268 250.679 172.219 250.689 172.172C253.397 158.784 268.169 146.53 271.768 145.279C271.866 145.246 271.972 145.254 272.064 145.3C272.156 145.347 272.225 145.428 272.257 145.525C272.29 145.623 272.282 145.729 272.236 145.821C272.189 145.913 272.108 145.982 272.011 146.015C268.493 147.236 254.06 159.263 251.403 172.356C251.376 172.434 251.323 172.501 251.254 172.546C251.185 172.591 251.103 172.612 251.02 172.606Z" fill="white"/>
<path d="M56.5837 167.859C56.6196 167.195 56.8117 166.55 57.1442 165.974C57.4767 165.399 57.9403 164.91 58.4973 164.547L156.319 108.066C156.912 107.769 157.566 107.614 158.229 107.614C158.892 107.614 159.546 107.769 160.139 108.066L162.295 109.318C162.854 109.679 163.318 110.167 163.651 110.743C163.983 111.319 164.175 111.965 164.209 112.63V187.613C164.171 188.277 163.979 188.922 163.646 189.497C163.314 190.072 162.851 190.561 162.295 190.925L64.4736 247.399C63.8807 247.7 63.225 247.857 62.56 247.857C61.895 247.857 61.2393 247.7 60.6464 247.399L58.4973 246.155C57.9411 245.791 57.4781 245.302 57.1457 244.727C56.8133 244.151 56.6208 243.506 56.5837 242.843V167.859Z" fill="url(#paint7_linear_10_808)"/>
<path opacity="0.3" d="M56.5837 167.859C56.6196 167.195 56.8117 166.55 57.1442 165.974C57.4767 165.399 57.9403 164.91 58.4973 164.547L156.319 108.066C156.912 107.769 157.566 107.614 158.229 107.614C158.892 107.614 159.546 107.769 160.139 108.066L162.295 109.318C162.854 109.679 163.318 110.167 163.651 110.743C163.983 111.319 164.175 111.965 164.209 112.63V187.613C164.171 188.277 163.979 188.922 163.646 189.497C163.314 190.072 162.851 190.561 162.295 190.925L64.4736 247.399C63.8807 247.7 63.225 247.857 62.56 247.857C61.895 247.857 61.2393 247.7 60.6464 247.399L58.4973 246.155C57.9411 245.791 57.4781 245.302 57.1457 244.727C56.8133 244.151 56.6208 243.506 56.5837 242.843V167.859Z" fill="black"/>
<path d="M65.5482 170.832L57.143 165.975C56.7994 166.545 56.6069 167.194 56.5837 167.859V242.843C56.6208 243.506 56.8133 244.151 57.1457 244.727C57.4781 245.302 57.9411 245.791 58.4973 246.155L60.6464 247.399C61.2393 247.7 61.895 247.857 62.56 247.857C63.225 247.857 63.8807 247.7 64.4736 247.399L65.5482 246.78V170.832Z" fill="url(#paint8_linear_10_808)"/>
<path opacity="0.5" d="M65.5482 170.832L57.143 165.975C56.7994 166.545 56.6069 167.194 56.5837 167.859V242.843C56.6208 243.506 56.8133 244.151 57.1457 244.727C57.4781 245.302 57.9411 245.791 58.4973 246.155L60.6464 247.399C61.2393 247.7 61.895 247.857 62.56 247.857C63.225 247.857 63.8807 247.7 64.4736 247.399L65.5482 246.78V170.832Z" fill="black"/>
<path d="M164.209 112.63V187.613C164.184 188.3 163.978 188.967 163.613 189.549C163.33 190.039 162.949 190.465 162.494 190.8L162.42 190.844L162.295 190.925L64.4736 247.399C64.2864 247.531 64.0688 247.614 63.8411 247.639C63.6134 247.665 63.3829 247.633 63.1709 247.546C62.9671 247.417 62.8024 247.236 62.6947 247.02C62.587 246.805 62.5404 246.564 62.56 246.324V171.311C62.5433 171.042 62.5921 170.774 62.7019 170.528C62.8118 170.283 62.9796 170.068 63.1909 169.901C63.4022 169.735 63.6507 169.622 63.9152 169.573C64.1796 169.523 64.452 169.539 64.7091 169.618L105.844 179.4L111.232 180.68C111.868 180.799 112.524 180.742 113.13 180.515C113.736 180.288 114.268 179.9 114.669 179.392L120.91 170.7L162.921 112.21C163.628 111.224 164.209 111.408 164.209 112.63Z" fill="url(#paint9_linear_10_808)"/>
<path opacity="0.2" d="M164.209 112.63V187.613C164.184 188.3 163.978 188.967 163.613 189.549C163.33 190.039 162.949 190.465 162.494 190.8L162.42 190.844L162.295 190.925L64.4736 247.399C64.2864 247.531 64.0688 247.614 63.8411 247.639C63.6134 247.665 63.3829 247.633 63.1709 247.546C62.9671 247.417 62.8024 247.236 62.6947 247.02C62.587 246.805 62.5404 246.564 62.56 246.324V171.311C62.5433 171.042 62.5921 170.774 62.7019 170.528C62.8118 170.283 62.9796 170.068 63.1909 169.901C63.4022 169.735 63.6507 169.622 63.9152 169.573C64.1796 169.523 64.452 169.539 64.7091 169.618L105.844 179.4L111.232 180.68C111.868 180.799 112.524 180.742 113.13 180.515C113.736 180.288 114.268 179.9 114.669 179.392L120.91 170.7L162.921 112.21C163.628 111.224 164.209 111.408 164.209 112.63Z" fill="black"/>
<path d="M162.295 190.925L162.42 190.844L162.494 190.8C162.949 190.465 163.33 190.039 163.613 189.549C163.975 188.976 164.18 188.319 164.209 187.643L120.91 170.715L149.908 198.094L162.295 190.925Z" fill="url(#paint10_linear_10_808)"/>
<path opacity="0.6" d="M162.295 190.925L162.42 190.844L162.494 190.8C162.949 190.465 163.33 190.039 163.613 189.549C163.975 188.976 164.18 188.319 164.209 187.643L120.91 170.715L149.908 198.094L162.295 190.925Z" fill="black"/>
<path d="M62.56 246.324C62.5319 246.568 62.5728 246.816 62.6782 247.038C62.7836 247.261 62.9491 247.449 63.1561 247.582C63.3681 247.67 63.5987 247.702 63.8264 247.676C64.0541 247.65 64.2717 247.567 64.4589 247.435L98.1529 227.924L105.844 179.348L62.56 245.051V246.324Z" fill="url(#paint11_linear_10_808)"/>
<path opacity="0.6" d="M62.56 246.324C62.5319 246.568 62.5728 246.816 62.6782 247.038C62.7836 247.261 62.9491 247.449 63.1561 247.582C63.3681 247.67 63.5987 247.702 63.8264 247.676C64.0541 247.65 64.2717 247.567 64.4589 247.435L98.1529 227.924L105.844 179.348L62.56 245.051V246.324Z" fill="black"/>
<path d="M163.613 189.549C163.33 190.039 162.949 190.465 162.494 190.8L162.42 190.844L64.4736 247.398C64.2864 247.531 64.0688 247.613 63.8411 247.639C63.6134 247.665 63.3829 247.633 63.1709 247.546L110.017 172.761C110.959 171.263 112.408 170.154 114.101 169.638C115.793 169.121 117.615 169.232 119.232 169.949L163.613 189.549Z" fill="url(#paint12_linear_10_808)"/>
<path opacity="0.2" d="M163.613 189.549C163.33 190.039 162.949 190.465 162.494 190.8L162.42 190.844L64.4736 247.398C64.2864 247.531 64.0688 247.613 63.8411 247.639C63.6134 247.665 63.3829 247.633 63.1709 247.546L110.017 172.761C110.959 171.263 112.408 170.154 114.101 169.638C115.793 169.121 117.615 169.232 119.232 169.949L163.613 189.549Z" fill="black"/>
<path d="M62.56 169.103L107.552 188.975C109.172 189.69 110.995 189.797 112.688 189.277C114.38 188.756 115.828 187.643 116.766 186.141L164.01 110.532L62.56 169.103Z" fill="url(#paint13_linear_10_808)"/>
<path opacity="0.6" d="M62.56 169.103L107.552 188.975C109.172 189.69 110.995 189.797 112.688 189.277C114.38 188.756 115.828 187.643 116.766 186.141L164.01 110.532L62.56 169.103Z" fill="black"/>
<path d="M62.56 169.103L107.868 186.031C109.434 186.615 111.152 186.65 112.74 186.128C114.328 185.606 115.691 184.56 116.604 183.16L164.01 110.532L62.56 169.103Z" fill="url(#paint14_linear_10_808)"/>
<path opacity="0.2" d="M62.56 169.103L107.868 186.031C109.434 186.615 111.152 186.65 112.74 186.128C114.328 185.606 115.691 184.56 116.604 183.16L164.01 110.532L62.56 169.103Z" fill="black"/>
<path d="M73.2909 177.096C73.3251 176.432 73.5164 175.785 73.849 175.209C74.1817 174.634 74.6462 174.145 75.2045 173.784L173.026 117.303C173.619 117.002 174.275 116.845 174.94 116.845C175.605 116.845 176.261 117.002 176.853 117.303L179.01 118.547C179.566 118.91 180.028 119.4 180.359 119.975C180.69 120.551 180.881 121.196 180.916 121.859V196.843C180.88 197.505 180.688 198.15 180.357 198.726C180.026 199.301 179.565 199.79 179.01 200.155L81.1808 256.628C80.5882 256.926 79.9341 257.081 79.2709 257.081C78.6077 257.081 77.9536 256.926 77.361 256.628L75.2045 255.384C74.6487 255.02 74.186 254.531 73.8537 253.956C73.5213 253.38 73.3286 252.735 73.2909 252.072V177.096Z" fill="#455A64"/>
<path d="M73.2909 177.096C73.3251 176.432 73.5164 175.785 73.849 175.209C74.1817 174.634 74.6462 174.145 75.2045 173.784L173.026 117.303C173.619 117.002 174.275 116.845 174.94 116.845C175.605 116.845 176.261 117.002 176.853 117.303L179.01 118.547C179.566 118.91 180.028 119.4 180.359 119.975C180.69 120.551 180.881 121.196 180.916 121.859V196.843C180.88 197.505 180.688 198.15 180.357 198.726C180.026 199.301 179.565 199.79 179.01 200.155L81.1808 256.628C80.5882 256.926 79.9341 257.081 79.2709 257.081C78.6077 257.081 77.9536 256.926 77.361 256.628L75.2045 255.384C74.6487 255.02 74.186 254.531 73.8537 253.956C73.5213 253.38 73.3286 252.735 73.2909 252.072V177.096Z" fill="#455A64"/>
<path d="M82.2627 180.084L73.8502 175.234C73.5057 175.804 73.3131 176.452 73.2909 177.118V252.08C73.3286 252.743 73.5213 253.388 73.8537 253.963C74.186 254.538 74.6487 255.028 75.2045 255.392L77.361 256.635C77.9536 256.933 78.6077 257.088 79.2709 257.088C79.9341 257.088 80.5882 256.933 81.1808 256.635L82.2627 256.01V180.084Z" fill="#263238"/>
<path d="M180.924 121.859V196.843C180.899 197.529 180.693 198.197 180.327 198.778C180.045 199.268 179.664 199.694 179.209 200.03L179.135 200.074L179.01 200.155L81.1882 256.628C81.001 256.76 80.7834 256.843 80.5557 256.869C80.328 256.894 80.0974 256.862 79.8855 256.775C79.6784 256.642 79.5129 256.454 79.4075 256.231C79.3021 256.009 79.2612 255.761 79.2893 255.517V180.54C79.2727 180.272 79.3214 180.003 79.4313 179.758C79.5411 179.512 79.7089 179.297 79.9202 179.131C80.1315 178.964 80.38 178.852 80.6445 178.802C80.9089 178.753 81.1813 178.768 81.4384 178.848L122.573 188.629L127.961 189.91C128.597 190.029 129.253 189.972 129.859 189.745C130.465 189.518 130.997 189.129 131.398 188.622L137.632 179.929L179.643 121.44C180.32 120.468 180.924 120.637 180.924 121.859Z" fill="#37474F"/>
<path d="M179.01 200.155L179.135 200.074L179.209 200.029C179.664 199.694 180.045 199.268 180.327 198.778C180.685 198.207 180.888 197.553 180.916 196.879L137.625 179.951L166.616 207.316L179.01 200.155Z" fill="#263238"/>
<path d="M79.2745 255.524C79.2464 255.768 79.2874 256.016 79.3927 256.238C79.4981 256.461 79.6637 256.649 79.8707 256.782C80.0827 256.87 80.3132 256.902 80.5409 256.876C80.7687 256.85 80.9862 256.767 81.1734 256.635L114.853 237.19L122.544 188.614L79.2598 254.265L79.2745 255.524Z" fill="#263238"/>
<path d="M180.32 198.778C180.037 199.268 179.656 199.694 179.201 200.03L179.128 200.074L81.1882 256.628C81.0009 256.76 80.7834 256.843 80.5557 256.869C80.328 256.894 80.0974 256.862 79.8854 256.775L126.724 181.998C127.664 180.497 129.112 179.385 130.805 178.866C132.497 178.347 134.32 178.455 135.939 179.171L180.32 198.778Z" fill="#37474F"/>
<path d="M79.2746 178.34L124.266 198.212C125.885 198.925 127.707 199.031 129.398 198.51C131.089 197.99 132.536 196.878 133.474 195.378L180.717 119.732L79.2746 178.34Z" fill="#263238"/>
<path d="M79.2746 178.34L124.575 195.268C126.142 195.854 127.862 195.889 129.451 195.368C131.041 194.846 132.405 193.798 133.319 192.397L180.717 119.732L79.2746 178.34Z" fill="#37474F"/>
<path d="M145.044 236.616V161.632C145.112 160.21 145.556 158.831 146.332 157.636L192.987 92.6692C193.838 91.4823 195.023 90.5755 196.392 90.0644C197.76 89.5532 199.249 89.4608 200.67 89.7988L244.543 100.228C245.957 100.604 247.321 101.148 248.606 101.847L250.763 103.091C251.317 103.456 251.778 103.945 252.109 104.52C252.44 105.096 252.632 105.74 252.669 106.403V181.387C252.631 182.049 252.439 182.693 252.108 183.268C251.777 183.843 251.316 184.333 250.763 184.699L152.933 241.172C152.341 241.471 151.687 241.627 151.024 241.627C150.36 241.627 149.706 241.471 149.114 241.172L146.957 239.928C146.401 239.565 145.938 239.075 145.606 238.5C145.273 237.925 145.081 237.279 145.044 236.616Z" fill="url(#paint15_linear_10_808)"/>
<path opacity="0.3" d="M145.044 236.616V161.632C145.112 160.21 145.556 158.831 146.332 157.636L192.987 92.6692C193.838 91.4823 195.023 90.5755 196.392 90.0644C197.76 89.5532 199.249 89.4608 200.67 89.7988L244.543 100.228C245.957 100.604 247.321 101.148 248.606 101.847L250.763 103.091C251.317 103.456 251.778 103.945 252.109 104.52C252.44 105.096 252.632 105.74 252.669 106.403V181.387C252.631 182.049 252.439 182.693 252.108 183.268C251.777 183.843 251.316 184.333 250.763 184.699L152.933 241.172C152.341 241.471 151.687 241.627 151.024 241.627C150.36 241.627 149.706 241.471 149.114 241.172L146.957 239.928C146.401 239.565 145.938 239.075 145.606 238.5C145.273 237.925 145.081 237.279 145.044 236.616Z" fill="white"/>
<path d="M154.008 125.392V221.072C154.008 222.286 154.869 222.787 155.922 222.176L247.767 169.184C248.324 168.822 248.788 168.333 249.121 167.757C249.453 167.182 249.645 166.536 249.681 165.872V70.1918C249.681 68.97 248.827 68.4769 247.767 69.0878L155.922 122.08C155.365 122.442 154.901 122.931 154.568 123.507C154.236 124.082 154.044 124.728 154.008 125.392Z" fill="#FAFAFA"/>
<path d="M155.068 222.816C154.831 222.818 154.597 222.757 154.391 222.639C154.139 222.472 153.937 222.238 153.808 221.965C153.678 221.691 153.625 221.388 153.655 221.087V125.407C153.69 124.677 153.898 123.967 154.263 123.334C154.628 122.702 155.138 122.166 155.752 121.771L247.598 68.7787C247.838 68.5834 248.131 68.4657 248.439 68.4412C248.747 68.4167 249.056 68.4866 249.323 68.6415C249.591 68.7965 249.805 69.0292 249.937 69.3087C250.069 69.5882 250.113 69.9014 250.063 70.2065V165.887C250.029 166.615 249.821 167.325 249.456 167.956C249.091 168.587 248.58 169.122 247.966 169.515L156.12 222.507C155.803 222.702 155.44 222.808 155.068 222.816ZM248.621 69.154C248.383 69.1676 248.153 69.2411 247.951 69.3675L156.106 122.396C155.606 122.728 155.189 123.171 154.889 123.691C154.589 124.211 154.413 124.793 154.376 125.392V221.072C154.332 221.244 154.345 221.427 154.414 221.591C154.483 221.755 154.604 221.892 154.758 221.981C154.913 222.071 155.092 222.107 155.269 222.085C155.445 222.063 155.61 221.984 155.738 221.859L247.583 168.867C248.083 168.536 248.5 168.093 248.8 167.573C249.1 167.053 249.276 166.471 249.313 165.872V70.1918C249.333 70.0192 249.31 69.8441 249.244 69.6832C249.178 69.5222 249.073 69.3806 248.937 69.2718C248.844 69.2046 248.735 69.1639 248.621 69.154Z" fill="#E0E0E0"/>
<path d="M152.028 163.458L145.404 159.63C145.19 160.277 145.071 160.951 145.051 161.632V236.616C145.088 237.279 145.281 237.925 145.613 238.5C145.945 239.075 146.408 239.565 146.964 239.928L149.114 241.172C149.705 241.473 150.36 241.63 151.024 241.63C151.687 241.63 152.342 241.473 152.933 241.172L153.853 240.649L152.028 163.458Z" fill="url(#paint16_linear_10_808)"/>
<g opacity="0.1">
<path d="M152.028 163.458L145.404 159.63C145.19 160.277 145.071 160.951 145.051 161.632V236.616C145.088 237.279 145.281 237.925 145.613 238.5C145.945 239.075 146.408 239.565 146.964 239.928L149.114 241.172C149.705 241.473 150.36 241.63 151.024 241.63C151.687 241.63 152.342 241.473 152.933 241.172L153.853 240.649L152.028 163.458Z" fill="black"/>
</g>
<path d="M252.676 106.403V181.387C252.651 182.073 252.446 182.741 252.08 183.322C251.797 183.812 251.416 184.238 250.961 184.574L250.888 184.618L250.763 184.699L152.941 241.172C152.754 241.304 152.536 241.387 152.308 241.413C152.081 241.438 151.85 241.406 151.638 241.319C151.431 241.186 151.265 240.998 151.16 240.775C151.055 240.553 151.014 240.305 151.042 240.061V165.084C151.025 164.816 151.074 164.547 151.184 164.302C151.294 164.056 151.462 163.841 151.673 163.675C151.884 163.508 152.133 163.396 152.397 163.346C152.662 163.297 152.934 163.312 153.191 163.391L194.304 173.173L199.692 174.454C200.329 174.574 200.986 174.518 201.594 174.291C202.201 174.064 202.734 173.674 203.136 173.166L209.377 164.473L251.388 105.983C252.095 105.012 252.676 105.181 252.676 106.403Z" fill="url(#paint17_linear_10_808)"/>
<path opacity="0.3" d="M252.676 106.403V181.387C252.651 182.073 252.446 182.741 252.08 183.322C251.797 183.812 251.416 184.238 250.961 184.574L250.888 184.618L250.763 184.699L152.941 241.172C152.754 241.304 152.536 241.387 152.308 241.413C152.081 241.438 151.85 241.406 151.638 241.319C151.431 241.186 151.265 240.998 151.16 240.775C151.055 240.553 151.014 240.305 151.042 240.061V165.084C151.025 164.816 151.074 164.547 151.184 164.302C151.294 164.056 151.462 163.841 151.673 163.675C151.884 163.508 152.133 163.396 152.397 163.346C152.662 163.297 152.934 163.312 153.191 163.391L194.304 173.173L199.692 174.454C200.329 174.574 200.986 174.518 201.594 174.291C202.201 174.064 202.734 173.674 203.136 173.166L209.377 164.473L251.388 105.983C252.095 105.012 252.676 105.181 252.676 106.403Z" fill="white"/>
<path d="M250.763 184.699L250.888 184.618L250.961 184.574C251.416 184.238 251.797 183.812 252.08 183.322C252.438 182.748 252.64 182.092 252.669 181.416L209.377 164.488L238.368 191.86L250.763 184.699Z" fill="url(#paint18_linear_10_808)"/>
<path d="M151.027 240.068C150.999 240.312 151.04 240.56 151.145 240.782C151.251 241.005 151.416 241.193 151.623 241.327C151.835 241.414 152.066 241.446 152.294 241.42C152.521 241.394 152.739 241.312 152.926 241.179L186.605 221.734L194.297 173.158L151.012 238.809L151.027 240.068Z" fill="url(#paint19_linear_10_808)"/>
<path d="M252.08 183.322C251.797 183.812 251.416 184.238 250.961 184.574L250.888 184.618L152.941 241.172C152.754 241.304 152.536 241.387 152.308 241.413C152.081 241.438 151.85 241.406 151.638 241.319L198.477 166.542C199.416 165.043 200.864 163.932 202.554 163.413C204.245 162.894 206.066 163.001 207.684 163.715L252.08 183.322Z" fill="url(#paint20_linear_10_808)"/>
<path opacity="0.3" d="M252.08 183.322C251.797 183.812 251.416 184.238 250.961 184.574L250.888 184.618L152.941 241.172C152.754 241.304 152.536 241.387 152.308 241.413C152.081 241.438 151.85 241.406 151.638 241.319L198.477 166.542C199.416 165.043 200.864 163.932 202.554 163.413C204.245 162.894 206.066 163.001 207.684 163.715L252.08 183.322Z" fill="white"/>
<path d="M194.451 147.428C193.592 147.561 192.714 147.483 191.892 147.2C191.071 146.918 190.33 146.441 189.733 145.808C188.615 144.565 188.055 142.644 188.055 140.06C188.057 137.145 188.682 134.265 189.888 131.611C191.126 128.88 192.835 126.389 194.937 124.251C197.197 121.907 199.773 119.891 202.591 118.26C205.354 116.67 207.711 115.789 209.664 115.618C211.629 115.441 213.109 115.949 214.124 117.127C215.14 118.304 215.641 120.107 215.641 122.521C215.683 124.916 215.116 127.281 213.992 129.396C213.002 131.31 211.491 132.907 209.635 134.003C208.994 134.458 208.208 134.663 207.427 134.577C207.149 134.522 206.893 134.388 206.689 134.191C206.485 133.994 206.343 133.742 206.279 133.466C205.666 134.625 204.887 135.689 203.968 136.623C203.037 137.583 201.977 138.408 200.818 139.074C198.816 140.207 197.219 140.546 196.041 140.156C194.863 139.766 194.304 138.574 194.304 136.586C194.321 134.089 195.09 131.655 196.512 129.602C198.06 127.325 200.116 125.441 202.518 124.096C203.521 123.499 204.611 123.062 205.749 122.801C206.595 122.572 207.486 122.572 208.332 122.801V130.551C208.332 131.177 208.443 131.559 208.656 131.707C208.869 131.854 209.223 131.78 209.723 131.493C210.655 130.887 211.346 129.973 211.674 128.91C212.171 127.474 212.408 125.961 212.373 124.442C212.373 122.509 211.951 121.103 211.107 120.225C210.656 119.784 210.106 119.458 209.503 119.273C208.899 119.089 208.261 119.052 207.64 119.165C205.843 119.44 204.122 120.081 202.584 121.049C199.33 122.854 196.525 125.37 194.378 128.409C192.393 131.262 191.339 134.657 191.36 138.132C191.36 140.247 191.794 141.79 192.663 142.761C193.113 143.248 193.677 143.615 194.303 143.831C194.93 144.047 195.6 144.104 196.254 143.998C198.086 143.738 199.842 143.094 201.406 142.106C202.486 141.482 203.508 140.763 204.461 139.957C205.348 139.225 206.154 138.401 206.868 137.499C206.941 137.404 207.028 137.32 207.125 137.249C207.191 137.212 207.258 137.249 207.316 137.337L208.126 138.809C208.156 138.867 208.178 138.929 208.192 138.993C208.167 139.157 208.086 139.307 207.964 139.42C207.075 140.489 206.089 141.475 205.02 142.364C203.894 143.308 202.69 144.155 201.421 144.896C199.307 146.231 196.93 147.095 194.451 147.428ZM204.019 133.591C204.72 132.764 205.129 131.729 205.182 130.647V126.157C204.132 126.246 203.12 126.595 202.238 127.173C200.834 127.963 199.638 129.075 198.749 130.419C197.916 131.651 197.467 133.104 197.461 134.592C197.461 135.836 197.771 136.579 198.396 136.8C199.022 137.021 199.986 136.8 201.303 136.012C202.37 135.395 203.303 134.572 204.049 133.591H204.019Z" fill="#E0E0E0"/>
<path d="M100.714 154.802L93.5382 150.644H93.4867C91.0358 149.26 87.6576 149.466 83.9187 151.623C76.4042 155.958 70.3174 166.505 70.3174 175.175C70.3174 179.51 71.8336 182.535 74.2845 184.007L80.96 187.827L82.167 185.817C83.536 185.511 84.851 184.999 86.0678 184.301C93.575 179.959 99.6691 169.412 99.6691 160.749C99.6651 159.578 99.5218 158.412 99.2422 157.275L100.714 154.802Z" fill="#F28F8F"/>
<path d="M100.714 154.802L93.5382 150.644H93.4867C91.0358 149.26 87.6576 149.466 83.9187 151.623C76.4042 155.958 70.3174 166.505 70.3174 175.175C70.3174 179.51 71.8336 182.535 74.2845 184.007L80.96 187.827L82.167 185.817C83.536 185.511 84.851 184.999 86.0678 184.301C93.575 179.959 99.6691 169.412 99.6691 160.749C99.6651 159.578 99.5218 158.412 99.2422 157.275L100.714 154.802Z" fill="url(#paint21_linear_10_808)"/>
<path opacity="0.4" d="M100.714 154.802L93.5382 150.644H93.4867C91.0358 149.26 87.6576 149.466 83.9187 151.623C76.4042 155.958 70.3174 166.505 70.3174 175.175C70.3174 179.51 71.8336 182.535 74.2845 184.007L80.96 187.827L82.167 185.817C83.536 185.511 84.851 184.999 86.0678 184.301C93.575 179.959 99.6691 169.412 99.6691 160.749C99.6651 159.578 99.5218 158.412 99.2422 157.275L100.714 154.802Z" fill="black"/>
<path d="M90.8151 155.575C83.3005 159.918 77.2138 170.464 77.2138 179.127C77.2138 187.79 83.3005 191.315 90.8151 186.98C98.3296 182.645 104.416 172.098 104.416 163.428C104.416 154.758 98.3296 151.24 90.8151 155.575Z" fill="url(#paint22_linear_10_808)"/>
<path d="M85.5011 181.203C85.3613 181.203 85.2877 181.122 85.2877 180.997C85.3022 180.858 85.3421 180.723 85.4055 180.599L86.0899 179.061C86.1353 178.91 86.225 178.777 86.3475 178.678C86.4494 178.632 86.5596 178.607 86.6714 178.605C87.2838 178.568 87.8882 178.447 88.4672 178.244C89.2371 177.985 89.9773 177.644 90.6752 177.228C91.7611 176.64 92.7134 175.833 93.472 174.858C94.041 174.121 94.3583 173.221 94.3773 172.29C94.3773 170.663 93.3837 170.428 91.3965 171.554L89.4608 172.724C89.1443 172.901 88.9235 172.967 88.7911 172.908C88.6586 172.849 88.5923 172.672 88.5923 172.378V171.767C88.5819 171.507 88.6512 171.25 88.7911 171.031C88.9683 170.792 89.1972 170.596 89.4608 170.457L91.3818 169.346C92.1515 168.927 92.8043 168.322 93.2806 167.587C93.6798 166.97 93.899 166.253 93.9136 165.519C93.9136 163.944 92.8047 163.796 90.5869 165.077C89.223 165.854 87.9949 166.849 86.9511 168.021C86.853 168.132 86.7445 168.233 86.6272 168.323C86.5839 168.343 86.5349 168.349 86.4882 168.338C86.4415 168.327 86.3997 168.301 86.3696 168.264L85.7146 167.528C85.678 167.494 85.6487 167.453 85.6285 167.407C85.6083 167.362 85.5975 167.313 85.5968 167.263C85.6117 167.094 85.6845 166.935 85.8029 166.814C86.4549 165.998 87.1954 165.258 88.0109 164.606C88.9605 163.832 89.9722 163.138 91.0359 162.53C91.9961 161.933 93.0554 161.512 94.1639 161.287C94.5127 161.202 94.8758 161.194 95.228 161.264C95.5801 161.334 95.9127 161.48 96.2026 161.691C96.4639 161.943 96.6657 162.251 96.793 162.591C96.9203 162.931 96.9701 163.295 96.9386 163.656C96.922 164.467 96.7417 165.265 96.4087 166.004C96.0529 166.857 95.5552 167.644 94.9367 168.33C95.2543 168.224 95.5938 168.199 95.9234 168.26C96.2529 168.32 96.5617 168.464 96.8208 168.676C97.0476 168.94 97.2197 169.246 97.3271 169.577C97.4345 169.908 97.475 170.257 97.4464 170.604C97.3902 172.236 96.8181 173.808 95.8125 175.094C94.578 176.75 93.0016 178.12 91.1904 179.112C88.5997 180.629 86.7033 181.325 85.5011 181.203Z" fill="white"/>
<path d="M239.84 261.11L239.98 260.985C240.083 260.897 240.194 260.808 240.289 260.713L240.62 260.389L240.952 260.072C241.145 259.891 241.33 259.699 241.504 259.498L244.124 261.456L245.868 262.759C245.233 263.447 244.716 264.235 244.337 265.092C244.337 265.092 243.815 265.938 242.041 265.512C239.848 265.004 239.502 261.78 239.84 261.11Z" fill="#FFA8A7"/>
<path d="M214.176 260.212C212.174 257.887 213.955 254.023 215.898 249.01C218.033 243.498 221.33 234.128 221.33 234.128L244.742 229.293C244.742 229.293 269.685 228.815 271.974 233.584C273.829 237.404 257.401 243.152 255.046 243.358L240.628 244.116L239.112 244.852L228.984 257.666L214.176 260.212Z" fill="url(#paint23_linear_10_808)"/>
<path d="M257.313 237.492C255.495 239.341 253.801 241.308 252.242 243.38C248.025 249.268 241.349 259.962 241.349 259.962C241.349 259.962 242.387 263.348 245.574 263.2C245.574 263.2 267.507 242.718 269.302 240.826C272.018 237.956 274.197 233.223 269.501 232.833C264.805 232.443 259.138 235.519 257.313 237.492Z" fill="url(#paint24_linear_10_808)"/>
<path d="M252.124 243.498C252.124 243.498 256.04 237.772 260.095 235.402C260.095 235.402 256.062 236.197 249.953 243.63L252.124 243.498Z" fill="url(#paint25_linear_10_808)"/>
<path opacity="0.1" d="M252.124 243.498C252.124 243.498 256.04 237.772 260.095 235.402C260.095 235.402 256.062 236.197 249.953 243.63L252.124 243.498Z" fill="black"/>
<path d="M254.788 250.74L253.25 251.034L254.678 256.311C254.678 256.311 256.062 256.179 256.54 256.208C257.237 256.043 257.908 255.783 258.535 255.436L258.167 252.212L256.474 250.446L254.788 250.74Z" fill="#FFA8A7"/>
<path d="M266.932 251.984C267.667 252.28 268.332 252.724 268.887 253.289C269.441 253.854 269.873 254.527 270.156 255.266C270.484 256.04 270.752 256.837 270.958 257.651C271.201 258.505 271.084 259.955 270.002 260.19C269.65 260.232 269.294 260.168 268.979 260.006C266.807 259.167 264.688 258.196 262.465 257.489C260.56 256.784 258.566 256.35 256.54 256.201C257.001 255.492 257.231 254.659 257.199 253.814C257.168 252.97 256.876 252.156 256.364 251.483C255.928 251.08 255.377 250.823 254.788 250.747C255.348 250.497 255.87 250.173 256.408 249.872C257.408 249.172 258.634 248.87 259.845 249.025C260.772 249.224 261.479 249.96 262.266 250.497C263.768 251.476 265.218 251.41 266.932 251.984Z" fill="#263238"/>
<path d="M217.333 255.156C219.269 254.56 222.36 254.03 231.531 253.559C240.701 253.088 253.25 251.027 253.25 251.027C255.385 253.081 254.678 256.304 254.678 256.304C254.678 256.304 238.39 261.456 233.084 262.141C224.635 263.23 221.72 263.149 217.908 262.332C213.624 261.412 210.923 257.121 217.333 255.156Z" fill="url(#paint26_linear_10_808)"/>
<path d="M250.851 211.474L257.74 227.939L252.809 230.971L243.329 214.919L250.851 211.474Z" fill="#F28F8F"/>
<path d="M236.602 195.959C240.37 196.004 244.514 197.373 245.942 200.324L251.83 212.468C251.83 212.468 248.503 217.34 243.219 216.994L236.602 195.959Z" fill="#E0E0E0"/>
<path d="M211.548 221.55C211.593 220.91 212.513 217.782 213.499 214.411L220.653 216.884L218.732 222.941L212.704 228.66C211.398 226.534 210.983 223.98 211.548 221.55Z" fill="#FFA8A7"/>
<path d="M228.896 196.188C224.406 197.27 218.29 198.675 216.516 203.548C214.743 208.42 212.204 217.024 212.204 217.024C213.19 218.731 218.599 220.144 220.476 219.158L221.359 216.214V234.114C224.87 237.934 242.188 236.955 244.772 229.278V204.895C244.772 200.994 242.608 196.305 236.624 195.959L228.896 196.188Z" fill="#FAFAFA"/>
<path d="M221.337 216.229L223.589 209.141L221.337 219.401V216.229Z" fill="#E0E0E0"/>
<path d="M227.188 176.235C226.789 176.183 226.383 176.222 226 176.35C225.618 176.477 225.269 176.689 224.98 176.971C224.031 177.942 224.244 179.738 224.98 183.86L227.924 184.191L227.188 176.235Z" fill="#263238"/>
<path d="M244.271 175.042C244.901 175.045 245.525 174.917 246.104 174.667C247.002 174.152 247.237 175.175 246.744 176.058C246.418 176.695 245.934 177.238 245.339 177.634C244.744 178.031 244.057 178.269 243.344 178.325C243.344 178.2 242.505 176.036 242.505 176.036L244.271 175.042Z" fill="#263238"/>
<path d="M228.565 184.235C228.131 184.493 227.505 183.661 226.968 183.094C226.757 182.853 226.488 182.67 226.187 182.562C225.886 182.453 225.562 182.423 225.246 182.475C224.93 182.526 224.632 182.658 224.381 182.856C224.13 183.055 223.933 183.314 223.81 183.609C222.92 185.486 224.944 187.981 226.129 188.806C226.461 189.092 226.876 189.267 227.313 189.304C227.751 189.341 228.189 189.238 228.565 189.012L228.874 196.188C229.399 197.338 230.201 198.34 231.208 199.104C232.215 199.868 233.395 200.371 234.644 200.567C238.854 201.134 237.986 197.66 236.602 195.96V193.332C237.656 193.557 238.739 193.612 239.811 193.494C240.356 193.347 241.666 191.764 242.512 189.991C243.461 188.003 245.044 184.471 243.638 178.487C242.122 172.069 235.226 171.863 231.126 174.461C227.027 177.059 228.565 184.235 228.565 184.235Z" fill="#FFA8A7"/>
<path d="M228.565 184.964C228.344 184.964 227.512 183.587 226.968 183.094C226.232 182.41 227.188 176.235 227.188 176.235C227.188 176.235 226.452 173.887 227.924 172.334C229.396 170.781 232.282 171.039 234.387 170.965C236.966 170.979 239.52 170.466 241.894 169.456C244.882 168.161 245.103 167.984 245.471 169.316C245.839 170.648 245.986 173.629 244.205 175.639L243.233 177.221C243.233 177.221 242.328 177.957 239.553 178.325C236.779 178.693 232.024 177.169 231.457 177.088C230.648 176.978 230.478 177.758 230.044 179.893C229.632 181.769 229.301 184.949 228.565 184.964Z" fill="#263238"/>
<path d="M227.196 176.713L224.561 175.3C224.648 175.125 224.768 174.969 224.916 174.841C225.064 174.713 225.235 174.615 225.421 174.554C225.607 174.493 225.803 174.47 225.997 174.486C226.192 174.501 226.382 174.555 226.556 174.645C226.906 174.843 227.168 175.167 227.287 175.552C227.406 175.936 227.374 176.352 227.196 176.713Z" fill="#263238"/>
<path d="M236.595 193.332C236.595 193.332 232.694 192.545 231.332 191.86C230.531 191.44 229.874 190.789 229.448 189.991C229.655 190.791 230.02 191.542 230.523 192.199C231.516 193.472 236.595 194.407 236.595 194.407V193.332Z" fill="#F28F8F"/>
<path d="M236.72 184.088C236.714 184.241 236.663 184.389 236.574 184.513C236.485 184.637 236.361 184.733 236.218 184.787C236.075 184.842 235.919 184.853 235.77 184.82C235.621 184.786 235.484 184.71 235.378 184.6C235.272 184.49 235.201 184.351 235.173 184.2C235.145 184.05 235.162 183.894 235.222 183.753C235.282 183.613 235.382 183.492 235.509 183.408C235.637 183.323 235.787 183.278 235.94 183.278C236.044 183.28 236.147 183.303 236.243 183.344C236.338 183.386 236.425 183.446 236.497 183.521C236.57 183.597 236.627 183.685 236.665 183.782C236.703 183.88 236.722 183.983 236.72 184.088Z" fill="#263238"/>
<path d="M235.895 181.144L234.217 182.064C234.101 181.834 234.077 181.568 234.149 181.321C234.222 181.073 234.385 180.863 234.607 180.732C234.718 180.671 234.84 180.634 234.966 180.622C235.092 180.61 235.219 180.624 235.34 180.662C235.46 180.701 235.571 180.763 235.667 180.846C235.762 180.929 235.84 181.03 235.895 181.144Z" fill="#263238"/>
<path d="M236.256 189.313L238.044 189.991C238.005 190.11 237.942 190.22 237.859 190.315C237.776 190.409 237.675 190.486 237.562 190.541C237.448 190.596 237.325 190.628 237.2 190.634C237.074 190.641 236.948 190.622 236.83 190.579C236.589 190.484 236.395 190.298 236.287 190.062C236.18 189.826 236.169 189.558 236.256 189.313Z" fill="#F28F8F"/>
<path d="M243.69 181.791L242.166 180.614C242.238 180.512 242.33 180.425 242.437 180.359C242.544 180.294 242.662 180.25 242.786 180.232C242.91 180.213 243.036 180.22 243.157 180.251C243.278 180.283 243.392 180.339 243.491 180.415C243.694 180.575 243.828 180.807 243.865 181.064C243.902 181.32 243.839 181.58 243.69 181.791Z" fill="#263238"/>
<path d="M243.219 183.867C243.213 184.02 243.162 184.168 243.073 184.292C242.984 184.417 242.86 184.512 242.717 184.567C242.574 184.621 242.418 184.632 242.269 184.599C242.12 184.566 241.983 184.489 241.877 184.379C241.771 184.269 241.7 184.13 241.672 183.979C241.644 183.829 241.661 183.674 241.721 183.533C241.781 183.392 241.881 183.272 242.008 183.187C242.136 183.103 242.285 183.058 242.438 183.057C242.543 183.059 242.646 183.082 242.741 183.124C242.837 183.165 242.924 183.225 242.996 183.301C243.069 183.376 243.126 183.465 243.164 183.562C243.202 183.659 243.221 183.763 243.219 183.867Z" fill="#263238"/>
<path d="M239.539 183.771L238.803 188.423L241.379 188.121L239.539 183.771Z" fill="#F28F8F"/>
<path d="M266.388 236.594L250.527 227.438C250.388 227.359 250.231 227.317 250.071 227.317C249.911 227.317 249.753 227.359 249.614 227.438L221.801 243.498L238.111 252.948L266.388 236.594Z" fill="#37474F"/>
<path d="M237.964 251.572L229.411 246.641L254.42 232.2L263.017 237.109L237.964 251.572Z" fill="#263238"/>
<path d="M233.761 237.853L233.923 237.941L238.111 240.362L245.566 236.057L245.721 235.969L241.371 233.459L233.761 237.853Z" fill="#263238"/>
<path d="M233.923 237.941L238.111 240.362L245.566 236.057L241.371 233.635L233.923 237.941Z" fill="#263238"/>
<path d="M221.801 243.498V243.873C221.799 244.139 221.866 244.4 221.994 244.632C222.123 244.865 222.31 245.059 222.537 245.198L237.316 253.728C237.548 253.863 237.812 253.934 238.081 253.934C238.35 253.934 238.614 253.863 238.847 253.728L265.593 238.272C265.819 238.133 266.006 237.938 266.134 237.706C266.263 237.474 266.33 237.213 266.329 236.947V236.572L238.111 252.948L221.801 243.498Z" fill="#263238"/>
<path d="M238.111 252.948V253.964C238.37 253.961 238.624 253.89 238.847 253.758L265.593 238.302C265.819 238.163 266.006 237.968 266.134 237.736C266.263 237.504 266.33 237.242 266.329 236.977V236.601L238.111 252.948Z" fill="#263238"/>
<path d="M238.545 253.147C238.798 253.243 239.069 253.282 239.339 253.261C239.609 253.239 239.871 253.157 240.105 253.022L266.734 237.647C266.965 237.514 267.163 237.332 267.315 237.113C267.466 236.894 267.567 236.644 267.61 236.381L270.554 219.004C270.561 218.903 270.561 218.802 270.554 218.702C270.552 218.218 270.359 217.755 270.016 217.414L242.343 233.392C242.172 233.491 242.026 233.626 241.914 233.787C241.802 233.949 241.727 234.133 241.695 234.327L238.545 253.147Z" fill="#263238"/>
<path d="M238.111 252.948L238.295 253.051C238.376 253.097 238.459 253.139 238.545 253.176L241.695 234.357C241.727 234.163 241.802 233.978 241.914 233.817C242.026 233.655 242.172 233.52 242.343 233.422L270.016 217.443C269.903 217.338 269.78 217.244 269.648 217.164L241.923 233.142C241.752 233.241 241.605 233.375 241.492 233.537C241.379 233.698 241.302 233.883 241.268 234.077L238.111 252.948Z" fill="#455A64"/>
<path d="M253.537 237.095C253.956 235.642 254.918 234.406 256.224 233.643C257.512 232.907 258.395 233.238 258.204 234.379C257.785 235.832 256.823 237.068 255.517 237.831C254.229 238.603 253.346 238.228 253.537 237.095Z" fill="#37474F"/>
<path d="M218.732 222.927C218.732 222.927 223.508 241.327 225.525 242.644C227.542 243.961 231.295 244.926 233.091 245.588C234.887 246.25 235.704 247.156 235.395 247.406C235.086 247.656 232.495 247.929 231.597 248.245C230.699 248.561 231.862 250.011 233.849 251.55C235.836 253.088 237.529 252.948 237.308 253.971C237.088 254.994 232.657 256.017 228.918 253.824C225.179 251.631 224.046 248.672 221.816 246.162C219.586 243.652 214.492 233.223 212.704 228.66C212.704 228.66 212.873 220.181 215.648 220.719C218.423 221.256 218.732 222.927 218.732 222.927Z" fill="#FFA8A7"/>
<path d="M241.46 260.212C241.798 261.029 242.968 263.281 245.574 263.156L251.977 257.165L241.46 260.212Z" fill="url(#paint27_linear_10_808)"/>
<path opacity="0.1" d="M241.46 260.212C241.798 261.029 242.968 263.281 245.574 263.156L251.977 257.165L241.46 260.212Z" fill="black"/>
<path d="M243.395 270.752C243.334 268.825 243.651 266.904 244.33 265.099C244.022 265.315 243.666 265.452 243.293 265.501C242.92 265.55 242.541 265.508 242.188 265.379C240.046 264.739 239.509 261.751 239.848 261.103C239.539 261.375 239.215 261.633 238.898 261.898C237.883 262.579 237.161 263.617 236.874 264.805C236.727 265.74 237.161 266.66 237.375 267.587C237.787 269.353 237.375 271.193 237.308 273.004C237.323 273.794 237.5 274.573 237.828 275.292C238.156 276.011 238.628 276.655 239.215 277.185C239.818 277.773 240.468 278.312 241.158 278.796C241.409 279.079 241.741 279.276 242.109 279.361C242.477 279.447 242.863 279.416 243.212 279.273C243.562 279.13 243.859 278.882 244.061 278.563C244.264 278.245 244.363 277.871 244.345 277.494C244.065 275.197 243.528 273.144 243.395 270.752Z" fill="#263238"/>
<path d="M245.824 262.774C245.625 263.149 245.449 263.51 245.294 263.87C245.478 263.517 245.655 263.149 245.824 262.774Z" fill="#37474F"/>
<defs>
<linearGradient id="paint0_linear_10_808" x1="100.913" y1="110.944" x2="62.0522" y2="110.944" gradientUnits="userSpaceOnUse">
<stop stop-color="#0678D4"/>
<stop offset="1" stop-color="#9747FF"/>
</linearGradient>
<linearGradient id="paint1_linear_10_808" x1="100.913" y1="103.013" x2="50.0922" y2="103.013" gradientUnits="userSpaceOnUse">
<stop stop-color="#0678D4"/>
<stop offset="1" stop-color="#9747FF"/>
</linearGradient>
<linearGradient id="paint2_linear_10_808" x1="65.0403" y1="115.051" x2="59.0566" y2="115.051" gradientUnits="userSpaceOnUse">
<stop stop-color="#0678D4"/>
<stop offset="1" stop-color="#9747FF"/>
</linearGradient>
<linearGradient id="paint3_linear_10_808" x1="347.48" y1="141.919" x2="302.636" y2="141.919" gradientUnits="userSpaceOnUse">
<stop stop-color="#0678D4"/>
<stop offset="1" stop-color="#9747FF"/>
</linearGradient>
<linearGradient id="paint4_linear_10_808" x1="329.544" y1="137.343" x2="302.636" y2="137.343" gradientUnits="userSpaceOnUse">
<stop stop-color="#0678D4"/>
<stop offset="1" stop-color="#9747FF"/>
</linearGradient>
<linearGradient id="paint5_linear_10_808" x1="60.7742" y1="227.57" x2="33.2086" y2="227.57" gradientUnits="userSpaceOnUse">
<stop stop-color="#0678D4"/>
<stop offset="1" stop-color="#9747FF"/>
</linearGradient>
<linearGradient id="paint6_linear_10_808" x1="276.211" y1="163.232" x2="248.493" y2="163.232" gradientUnits="userSpaceOnUse">
<stop stop-color="#0678D4"/>
<stop offset="1" stop-color="#9747FF"/>
</linearGradient>
<linearGradient id="paint7_linear_10_808" x1="164.209" y1="179.63" x2="56.5837" y2="179.63" gradientUnits="userSpaceOnUse">
<stop stop-color="#0678D4"/>
<stop offset="1" stop-color="#9747FF"/>
</linearGradient>
<linearGradient id="paint8_linear_10_808" x1="65.5482" y1="208.022" x2="56.5837" y2="208.022" gradientUnits="userSpaceOnUse">
<stop stop-color="#0678D4"/>
<stop offset="1" stop-color="#9747FF"/>
</linearGradient>
<linearGradient id="paint9_linear_10_808" x1="164.209" y1="181.451" x2="62.5556" y2="181.451" gradientUnits="userSpaceOnUse">
<stop stop-color="#0678D4"/>
<stop offset="1" stop-color="#9747FF"/>
</linearGradient>
<linearGradient id="paint10_linear_10_808" x1="164.209" y1="184.774" x2="120.91" y2="184.774" gradientUnits="userSpaceOnUse">
<stop stop-color="#0678D4"/>
<stop offset="1" stop-color="#9747FF"/>
</linearGradient>
<linearGradient id="paint11_linear_10_808" x1="105.844" y1="214.44" x2="62.5514" y2="214.44" gradientUnits="userSpaceOnUse">
<stop stop-color="#0678D4"/>
<stop offset="1" stop-color="#9747FF"/>
</linearGradient>
<linearGradient id="paint12_linear_10_808" x1="163.613" y1="209.541" x2="63.1709" y2="209.541" gradientUnits="userSpaceOnUse">
<stop stop-color="#0678D4"/>
<stop offset="1" stop-color="#9747FF"/>
</linearGradient>
<linearGradient id="paint13_linear_10_808" x1="164.01" y1="151.135" x2="62.56" y2="151.135" gradientUnits="userSpaceOnUse">
<stop stop-color="#0678D4"/>
<stop offset="1" stop-color="#9747FF"/>
</linearGradient>
<linearGradient id="paint14_linear_10_808" x1="164.01" y1="149.54" x2="62.56" y2="149.54" gradientUnits="userSpaceOnUse">
<stop stop-color="#0678D4"/>
<stop offset="1" stop-color="#9747FF"/>
</linearGradient>
<linearGradient id="paint15_linear_10_808" x1="252.669" y1="167.668" x2="145.044" y2="167.668" gradientUnits="userSpaceOnUse">
<stop stop-color="#0678D4"/>
<stop offset="1" stop-color="#9747FF"/>
</linearGradient>
<linearGradient id="paint16_linear_10_808" x1="153.853" y1="201.738" x2="145.051" y2="201.738" gradientUnits="userSpaceOnUse">
<stop stop-color="#0678D4"/>
<stop offset="1" stop-color="#9747FF"/>
</linearGradient>
<linearGradient id="paint17_linear_10_808" x1="252.676" y1="175.227" x2="151.033" y2="175.227" gradientUnits="userSpaceOnUse">
<stop stop-color="#0678D4"/>
<stop offset="1" stop-color="#9747FF"/>
</linearGradient>
<linearGradient id="paint18_linear_10_808" x1="252.669" y1="178.544" x2="209.377" y2="178.544" gradientUnits="userSpaceOnUse">
<stop stop-color="#0678D4"/>
<stop offset="1" stop-color="#9747FF"/>
</linearGradient>
<linearGradient id="paint19_linear_10_808" x1="194.297" y1="208.216" x2="151.012" y2="208.216" gradientUnits="userSpaceOnUse">
<stop stop-color="#0678D4"/>
<stop offset="1" stop-color="#9747FF"/>
</linearGradient>
<linearGradient id="paint20_linear_10_808" x1="252.08" y1="203.314" x2="151.638" y2="203.314" gradientUnits="userSpaceOnUse">
<stop stop-color="#0678D4"/>
<stop offset="1" stop-color="#9747FF"/>
</linearGradient>
<linearGradient id="paint21_linear_10_808" x1="100.714" y1="169.312" x2="70.3174" y2="169.312" gradientUnits="userSpaceOnUse">
<stop stop-color="#0678D4"/>
<stop offset="1" stop-color="#9747FF"/>
</linearGradient>
<linearGradient id="paint22_linear_10_808" x1="104.416" y1="171.752" x2="77.2138" y2="171.752" gradientUnits="userSpaceOnUse">
<stop stop-color="#0678D4"/>
<stop offset="1" stop-color="#9747FF"/>
</linearGradient>
<linearGradient id="paint23_linear_10_808" x1="272.12" y1="245.164" x2="213.297" y2="245.164" gradientUnits="userSpaceOnUse">
<stop stop-color="#0678D4"/>
<stop offset="1" stop-color="#9747FF"/>
</linearGradient>
<linearGradient id="paint24_linear_10_808" x1="272.25" y1="248.413" x2="241.349" y2="248.413" gradientUnits="userSpaceOnUse">
<stop stop-color="#0678D4"/>
<stop offset="1" stop-color="#9747FF"/>
</linearGradient>
<linearGradient id="paint25_linear_10_808" x1="260.095" y1="239.627" x2="249.953" y2="239.627" gradientUnits="userSpaceOnUse">
<stop stop-color="#0678D4"/>
<stop offset="1" stop-color="#9747FF"/>
</linearGradient>
<linearGradient id="paint26_linear_10_808" x1="254.79" y1="257.151" x2="213.519" y2="257.151" gradientUnits="userSpaceOnUse">
<stop stop-color="#0678D4"/>
<stop offset="1" stop-color="#9747FF"/>
</linearGradient>
<linearGradient id="paint27_linear_10_808" x1="251.977" y1="260.244" x2="241.46" y2="260.244" gradientUnits="userSpaceOnUse">
<stop stop-color="#0678D4"/>
<stop offset="1" stop-color="#9747FF"/>
</linearGradient>
</defs>
</svg>